<svg version="1.1" xmlns="http://www.w3.org/2000/svg" xmlns:xlink="http://www.w3.org/1999/xlink" width="32.69922" height="74.73038" viewBox="0,0,32.69922,74.73038"><g transform="translate(-223.65039,-142.63481)"><g data-paper-data="{&quot;isPaintingLayer&quot;:true}" fill-rule="nonzero" stroke="none" stroke-width="0" stroke-linecap="butt" stroke-linejoin="miter" stroke-miterlimit="10" stroke-dasharray="" stroke-dashoffset="0" style="mix-blend-mode: normal"><path d="M228.41925,212.56908c0,0 -4.76886,-57.4972 -4.76886,-66.26464c0,-1.99326 1.40466,-3.66963 2.86072,-3.66963c4.69993,0 23.60644,6.04695 23.60644,6.04695l0.23844,60.46948z" fill="#313131"/><path d="M227.70392,210.99162l-1.19221,-68.35681c0,0 22.2447,0 26.94464,0c1.45605,0 2.86072,1.67638 2.86072,3.66964c0,8.76744 -3.09976,65.73882 -3.09976,65.73882z" data-paper-data="{&quot;index&quot;:null}" fill="#313131"/><path d="M256.31706,146.57847l-6.19952,64.67606c0,0 -18.9065,6.04695 -23.60643,6.04695c-1.45605,0 -2.86072,-1.67638 -2.86072,-3.66964c0,-8.76744 0,-66.52755 0,-66.52755z" data-paper-data="{&quot;index&quot;:null}" fill="#313131"/><path d="M256.31706,149.7334c0,0 0,55.13101 0,63.89844c0,1.99326 -1.40467,3.66964 -2.86072,3.66964c-4.69993,0 -26.94464,0 -26.94464,0l-2.86131,-69.40845z" data-paper-data="{&quot;index&quot;:null}" fill="#313131"/><path d="M223.80583,214.81248c-0.16661,-0.36797 -0.14466,-1.95684 -0.14466,-1.95684l32.65873,0.16667c0,0 0.00945,1.32236 0.02964,2.12996c0.01114,0.44545 -1.37841,2.1498 -2.3618,2.15308c-6.00014,0.02001 -26.63066,0.08814 -27.30921,0.04673c-0.59272,-0.03618 -1.55767,-0.39992 -2.07705,-0.9685c-0.46607,-0.51022 -0.67215,-1.29833 -0.79564,-1.57109z" fill="#ffffff"/></g></g></svg>