<svg version="1.1" xmlns="http://www.w3.org/2000/svg" xmlns:xlink="http://www.w3.org/1999/xlink" width="60.5" height="8" viewBox="0,0,60.5,8"><g transform="translate(-209.75,-176)"><g data-paper-data="{&quot;isPaintingLayer&quot;:true}" fill-rule="nonzero" stroke="#ffffff" stroke-width="1" stroke-linecap="butt" stroke-linejoin="miter" stroke-miterlimit="10" stroke-dasharray="" stroke-dashoffset="0" style="mix-blend-mode: normal"><path d="M210.25,180c0,-1.933 1.567,-3.5 3.5,-3.5c1.933,0 3.5,1.567 3.5,3.5c0,1.933 -1.567,3.5 -3.5,3.5c-1.933,0 -3.5,-1.567 -3.5,-3.5z" fill="#ffffff"/><path d="M227.75,180c0,-1.933 1.567,-3.5 3.5,-3.5c1.933,0 3.5,1.567 3.5,3.5c0,1.933 -1.567,3.5 -3.5,3.5c-1.933,0 -3.5,-1.567 -3.5,-3.5z" fill="none"/><path d="M245.25,180c0,-1.933 1.567,-3.5 3.5,-3.5c1.933,0 3.5,1.567 3.5,3.5c0,1.933 -1.567,3.5 -3.5,3.5c-1.933,0 -3.5,-1.567 -3.5,-3.5z" fill="none"/><path d="M262.75,180c0,-1.933 1.567,-3.5 3.5,-3.5c1.933,0 3.5,1.567 3.5,3.5c0,1.933 -1.567,3.5 -3.5,3.5c-1.933,0 -3.5,-1.567 -3.5,-3.5z" fill="none"/></g></g></svg>